<?xml version="1.0" encoding="UTF-8" standalone="no"?>
<!DOCTYPE svg PUBLIC "-//W3C//DTD SVG 1.1//EN" "http://www.w3.org/Graphics/SVG/1.1/DTD/svg11.dtd">
<svg width="100%" height="100%" viewBox="0 0 1667 1667" version="1.1" xmlns="http://www.w3.org/2000/svg" xmlns:xlink="http://www.w3.org/1999/xlink" xml:space="preserve" xmlns:serif="http://www.serif.com/" style="fill-rule:evenodd;clip-rule:evenodd;stroke-linejoin:round;stroke-miterlimit:2;">
    <g transform="matrix(4.16667,0,0,4.16667,0,0)">
        <g transform="matrix(2.83465,0,0,2.83465,-104.201,-75.9061)">
            <g id="layer1">
                <g>
                    <g transform="matrix(0.352778,0,0,0.352778,36.7598,26.041)">
                        <rect x="193.431" y="39.847" width="97.086" height="90.258" style="fill:var(--logo-bg, white);"/>
                    </g>
                    <path id="path1" d="M164.674,166.946C164.302,166.845 163.706,166.61 163.351,166.425C162.996,166.24 162.328,165.683 161.867,165.188C161.406,164.693 160.84,163.736 160.61,163.06C160.38,162.385 160.196,161.348 160.201,160.755C160.206,160.162 160.421,158.923 160.679,158C160.978,156.931 161.551,155.803 162.26,154.887C162.871,154.097 163.995,153.054 164.758,152.569C165.521,152.084 166.818,151.437 167.641,151.131C168.717,150.732 169.532,150.609 170.547,150.694C171.323,150.76 172.582,151.119 173.345,151.492C174.108,151.865 175.085,152.598 175.515,153.12C175.945,153.642 176.438,154.656 176.611,155.374C176.803,156.175 176.852,157.309 176.739,158.309C176.638,159.206 176.303,160.535 175.995,161.264C175.688,161.992 175.132,163.005 174.76,163.514C174.389,164.023 173.727,164.762 173.29,165.156C172.853,165.549 171.713,166.123 170.757,166.43C169.801,166.738 168.193,167.021 167.185,167.06C166.176,167.098 165.046,167.047 164.674,166.946ZM145.41,150.529C144.774,150.404 143.762,150.072 143.161,149.79C142.559,149.509 141.622,149.075 141.077,148.827C140.532,148.578 139.758,147.988 139.357,147.515C138.956,147.043 138.411,146.39 138.146,146.064C137.881,145.739 137.731,145.405 137.813,145.323C137.895,145.241 137.853,145.043 137.72,144.883C137.587,144.722 137.231,143.647 136.928,142.493C136.575,141.144 136.381,139.587 136.384,138.13C136.387,136.885 136.554,135.091 136.757,134.145C136.979,133.108 137.639,131.51 138.419,130.119C139.131,128.851 140.355,126.994 141.14,125.993C141.956,124.953 143.366,123.604 144.434,122.841C145.461,122.108 146.777,121.27 147.359,120.979C147.941,120.688 149.191,120.151 150.137,119.785C151.083,119.419 152.214,119.029 152.651,118.918C153.087,118.807 153.623,118.67 153.842,118.612C154.06,118.554 155.25,118.49 156.487,118.47C157.724,118.45 159.223,118.575 159.817,118.747C160.412,118.92 161.632,119.554 162.53,120.157C163.427,120.759 164.647,121.795 165.242,122.459C165.836,123.123 166.654,124.328 167.06,125.136C167.466,125.944 167.885,127.001 167.989,127.485C168.094,127.97 168.235,128.684 168.302,129.073C168.369,129.462 168.426,130.196 168.428,130.706C168.43,131.215 168.362,132.328 168.275,133.179C168.188,134.029 167.884,135.564 167.601,136.588C167.317,137.613 166.593,139.239 165.993,140.201C165.393,141.163 164.526,142.466 164.068,143.097C163.609,143.727 162.652,144.887 161.94,145.675C161.228,146.463 159.733,147.692 158.619,148.407C157.504,149.122 156.122,149.83 155.548,149.981C154.973,150.132 153.347,150.381 151.934,150.535C150.521,150.688 148.735,150.801 147.965,150.785C147.195,150.769 146.045,150.654 145.41,150.529L145.41,150.529ZM85.314,145.068C84.66,145.015 82.881,144.735 81.363,144.446C79.844,144.157 77.963,143.735 77.182,143.508C76.401,143.281 75.441,142.928 75.048,142.723C74.656,142.518 74.23,142.35 74.102,142.349C73.974,142.348 72.069,141.493 69.87,140.448C67.67,139.404 65.334,138.169 64.678,137.705C64.023,137.24 63.01,136.644 62.428,136.38C61.846,136.115 61.072,135.673 60.708,135.397C60.344,135.122 59.57,134.444 58.988,133.891C58.406,133.338 57.024,131.949 55.916,130.804C54.809,129.658 53.439,128.176 52.873,127.51C52.308,126.843 51.368,125.723 50.786,125.02C50.204,124.316 48.935,122.734 47.967,121.502C46.998,120.271 45.932,118.732 45.599,118.083C45.265,117.434 44.798,116.764 44.561,116.595C44.323,116.425 44.06,116.048 43.976,115.757C43.891,115.466 43.09,113.62 42.194,111.656C41.298,109.691 40.23,107.072 39.819,105.835C39.409,104.598 38.879,102.633 38.642,101.469C38.404,100.305 38.105,98.341 37.976,97.104C37.847,95.867 37.795,92.771 37.86,90.225C37.925,87.678 38.02,84.88 38.071,84.007C38.122,83.134 38.302,81.407 38.473,80.17C38.644,78.933 38.908,77.386 39.06,76.731C39.211,76.076 39.378,75.225 39.43,74.841C39.482,74.456 39.713,73.623 39.942,72.989C40.172,72.355 40.525,71.36 40.726,70.778C40.927,70.196 41.26,69.303 41.467,68.793C41.674,68.284 42.002,67.451 42.196,66.941C42.389,66.432 43.017,65.122 43.59,64.031C44.162,62.939 44.796,61.858 44.997,61.629C45.198,61.399 45.362,61.135 45.362,61.042C45.362,60.948 45.919,60.005 46.599,58.946C47.28,57.886 48.661,56.007 49.668,54.77C50.676,53.533 52.411,51.527 53.525,50.311C54.638,49.095 56.964,46.892 58.693,45.416C60.422,43.94 62.089,42.526 62.397,42.274C62.705,42.022 63.076,41.717 63.222,41.597C63.368,41.477 64.618,40.613 66,39.676C67.382,38.74 68.712,37.854 68.955,37.707C69.197,37.56 69.733,37.249 70.145,37.016C70.557,36.782 71.728,36.144 72.747,35.598C73.765,35.052 74.896,34.444 75.26,34.247C75.624,34.051 76.458,33.659 77.112,33.377C77.767,33.096 79.553,32.442 81.081,31.925C82.609,31.408 85.824,30.574 88.225,30.071C90.626,29.568 93.186,29.08 93.913,28.985C94.641,28.89 96.01,28.755 96.956,28.685C97.902,28.616 98.955,28.498 99.295,28.424C99.636,28.35 101.482,28.17 103.396,28.024C105.311,27.878 108.569,27.703 110.635,27.636C113.872,27.53 114.851,27.602 117.701,28.16C120.107,28.63 121.86,29.175 124.13,30.158C125.846,30.902 127.429,31.624 127.648,31.764C127.866,31.903 128.283,32.122 128.574,32.251C128.865,32.379 130.055,33.123 131.22,33.904C132.384,34.685 134.694,36.098 136.354,37.044C138.014,37.989 139.86,39.242 140.455,39.828C141.051,40.414 142.41,42.286 143.476,43.99C144.541,45.693 145.344,47.198 145.26,47.334C145.176,47.47 145.197,47.621 145.307,47.67C145.417,47.719 146.073,48.892 146.764,50.278C147.455,51.663 148.021,52.976 148.021,53.195C148.021,53.415 148.209,53.863 148.439,54.191C148.669,54.519 149.092,55.588 149.379,56.565C149.666,57.543 149.965,58.58 150.042,58.871C150.119,59.162 150.28,59.817 150.398,60.327C150.516,60.836 150.752,61.907 150.922,62.708C151.092,63.508 151.29,64.461 151.361,64.825C151.433,65.188 151.596,65.962 151.724,66.544C151.853,67.126 152.038,68.496 152.136,69.587C152.234,70.678 152.412,72.405 152.531,73.423C152.651,74.442 152.696,77.251 152.632,79.666C152.567,82.08 152.39,84.938 152.238,86.016C152.086,87.094 151.913,88.214 151.853,88.505C151.793,88.796 151.454,90.403 151.1,92.077C150.746,93.75 150.315,95.536 150.142,96.045C149.968,96.555 149.759,97.15 149.677,97.368C149.595,97.587 149.501,97.884 149.468,98.03C149.434,98.175 149.089,99.247 148.701,100.411C148.312,101.575 147.825,102.838 147.618,103.218C147.411,103.597 146.894,104.849 146.471,105.998C146.047,107.148 145.418,108.541 145.074,109.094C144.73,109.647 143.766,111.134 142.932,112.399C142.098,113.664 141.289,114.877 141.136,115.095C140.982,115.314 140.109,116.643 139.195,118.049C138.281,119.456 136.652,121.658 135.575,122.944C134.499,124.23 133.058,125.818 132.374,126.472C131.689,127.127 130.757,127.991 130.302,128.392C129.847,128.793 128.38,129.998 127.04,131.07C125.701,132.142 124.222,133.215 123.753,133.453C123.284,133.691 122.775,134.122 122.621,134.41C122.466,134.698 121.676,135.425 120.864,136.024C120.053,136.624 118.419,137.711 117.234,138.439C116.049,139.167 114.425,140.063 113.625,140.431C112.825,140.798 111.217,141.444 110.053,141.867C108.889,142.29 107.222,142.804 106.349,143.008C105.476,143.213 104.404,143.442 103.968,143.517C103.531,143.593 102.322,143.775 101.282,143.922C100.241,144.07 98.276,144.364 96.916,144.576C95.556,144.788 92.657,145.007 90.474,145.063C88.291,145.119 85.969,145.121 85.314,145.068L85.314,145.068ZM134.83,69.581C135.536,69.385 135.908,69.074 136.218,68.42C136.566,67.685 136.602,67.131 136.416,65.304C136.293,64.081 136.055,62.826 135.888,62.515C135.722,62.204 135.585,61.765 135.585,61.54C135.585,61.315 135.109,60.114 134.527,58.871C133.945,57.629 133.468,56.525 133.468,56.419C133.468,56.313 133.17,55.88 132.807,55.457C132.443,55.034 132.146,54.589 132.146,54.467C132.146,54.345 131.746,53.722 131.257,53.082C130.769,52.442 130.054,51.579 129.67,51.164C129.285,50.749 128.971,50.324 128.971,50.218C128.971,50.112 128.55,49.605 128.036,49.091C127.522,48.576 127.047,48.297 126.935,48.176C126.726,47.95 126.553,47.599 126.208,47.327C125.863,47.055 125.514,46.833 125.433,46.833C125.353,46.833 124.355,46.199 123.217,45.423C122.078,44.648 120.258,43.682 119.172,43.275C118.086,42.869 116.959,42.433 116.668,42.306C116.377,42.178 115.722,42.02 115.212,41.953C114.703,41.886 113.989,41.757 113.625,41.665C113.261,41.573 112.398,41.433 111.707,41.354C110.694,41.237 110.45,41.288 110.45,41.613C110.45,41.835 109.974,42.8 109.392,43.758C108.682,44.927 108.333,45.81 108.333,46.442C108.333,46.959 108.574,47.855 108.868,48.431C109.162,49.007 109.515,49.479 109.652,49.479C109.79,49.479 110.321,49.846 110.832,50.295C111.343,50.744 111.913,51.137 112.098,51.168C112.283,51.199 112.732,51.392 113.096,51.598C113.459,51.804 114.293,52.241 114.948,52.57C115.603,52.899 116.877,53.695 117.781,54.338C118.684,54.981 119.698,55.729 120.033,55.999C120.369,56.269 121.092,57.043 121.64,57.718C122.189,58.394 123.242,60.12 123.981,61.555C124.72,62.989 125.572,64.58 125.875,65.089C126.178,65.598 126.839,66.526 127.343,67.151C127.847,67.775 128.621,68.545 129.064,68.86C129.507,69.175 130.352,69.512 130.941,69.609C131.531,69.706 132.43,69.8 132.939,69.817C133.449,69.834 134.299,69.728 134.83,69.581Z" style="fill:currentColor;fill-rule:nonzero;"/>
                </g>
            </g>
        </g>
    </g>
</svg>
